<?xml version="1.0" encoding="utf-8"?>
<!-- Generator: Adobe Illustrator 22.0.1, SVG Export Plug-In . SVG Version: 6.00 Build 0)  -->
<svg version="1.1" id="ic_x5F_motorcycle_x5F_24px" xmlns="http://www.w3.org/2000/svg" xmlns:xlink="http://www.w3.org/1999/xlink"
	 x="0px" y="0px" viewBox="0 0 24 24" style="enable-background:new 0 0 24 24;" xml:space="preserve">
<style type="text/css">
	.st0{fill:#81B9DF;}
	.st1{fill:none;}
</style>
<g>
	<path class="st0" d="M17.5,10C17.5,10,17.5,10,17.5,10l-4.1-4H9v2h3.6l2,2H6.5l0,0C4,10,2,12,2,14.5C2,17,4,19,6.5,19
		c2.2,0,4.1-1.6,4.4-3.7l0,0L13,14c0,0.2,0,0.3,0,0.5c0,2.5,2,4.5,4.5,4.5s4.5-2,4.5-4.5S20,10,17.5,10z M8.8,15.3
		c-0.3,1-1.3,1.7-2.4,1.7C5.1,17,4,15.9,4,14.5S5.1,12,6.5,12c1.1,0,2,0.7,2.4,1.8H6v1.5L8.8,15.3z M17.5,17c-1.4,0-2.5-1.1-2.5-2.5
		s1.1-2.5,2.5-2.5s2.5,1.1,2.5,2.5S18.9,17,17.5,17z"/>
	<rect y="0" class="st1" width="24" height="24"/>
</g>
</svg>
